<svg width="23" height="22" viewBox="0 0 23 22" fill="none" xmlns="http://www.w3.org/2000/svg">
<g opacity="0.15" clip-path="url(#clip0_1_1474)">
<path d="M18.4881 1.18042C17.689 1.36085 16.886 1.54212 16.5874 2.03885L14.2759 6.4124L1.86417 9.21454L1.3613 10.612L10.859 11.4648L9.24757 15.251L5.64563 16.0642L4.7413 17.5523L7.33982 17.8202L7.63614 19.0372C7.76889 19.4686 8.23484 19.7566 8.63255 19.6668L9.8332 19.3958L11.225 21.6493L12.1293 20.1613L11.2404 16.5103L13.8483 13.3537L18.8243 21.6469L19.8277 20.5657L16.7655 7.98882L19.5776 3.93156C19.88 3.43399 19.6827 2.62393 19.4846 1.81006C19.3864 1.40693 18.8859 1.09063 18.4881 1.18042Z" fill="#1D2E5B"/>
</g>
<defs>
<clipPath id="clip0_1_1474">
<rect width="22.8468" height="22" fill="white" transform="translate(0.0769653)"/>
</clipPath>
</defs>
</svg>
