<svg width="19" height="20" viewBox="0 0 19 20" fill="none" xmlns="http://www.w3.org/2000/svg">
<g  clip-path="url(#clip0_1_1476)">
<path d="M4.83507 13.5714C4.83507 13.1771 4.68279 12.8404 4.37823 12.5614C4.07367 12.2824 3.70616 12.1429 3.27572 12.1429C2.84527 12.1429 2.47777 12.2824 2.17321 12.5614C1.86865 12.8404 1.71637 13.1771 1.71637 13.5714C1.71637 13.9658 1.86865 14.3025 2.17321 14.5815C2.47777 14.8605 2.84527 15 3.27572 15C3.70616 15 4.07367 14.8605 4.37823 14.5815C4.68279 14.3025 4.83507 13.9658 4.83507 13.5714ZM17.3099 13.5714C17.3099 13.1771 17.1576 12.8404 16.853 12.5614C16.5485 12.2824 16.181 12.1429 15.7505 12.1429C15.3201 12.1429 14.9526 12.2824 14.648 12.5614C14.3435 12.8404 14.1912 13.1771 14.1912 13.5714C14.1912 13.9658 14.3435 14.3025 14.648 14.5815C14.9526 14.8605 15.3201 15 15.7505 15C16.181 15 16.5485 14.8605 16.853 14.5815C17.1576 14.3025 17.3099 13.9658 17.3099 13.5714ZM16.7495 9.15179L15.8724 4.86607C15.8318 4.69494 15.7404 4.55543 15.5983 4.44754C15.4561 4.33966 15.2917 4.28571 15.1049 4.28571H3.92139C3.73459 4.28571 3.57013 4.33966 3.428 4.44754C3.28587 4.55543 3.1945 4.69494 3.15389 4.86607L2.27676 9.15179C2.23615 9.375 2.293 9.57217 2.44731 9.7433C2.60162 9.91443 2.8006 10 3.04425 10H15.982C16.2257 10 16.4246 9.91443 16.5789 9.7433C16.7333 9.57217 16.7901 9.375 16.7495 9.15179ZM13.9963 2.32143C13.9963 2.17262 13.9394 2.04613 13.8257 1.94196C13.712 1.8378 13.5739 1.78571 13.4115 1.78571H5.61475C5.45231 1.78571 5.31425 1.8378 5.20054 1.94196C5.08684 2.04613 5.02999 2.17262 5.02999 2.32143C5.02999 2.47024 5.08684 2.59673 5.20054 2.70089C5.31425 2.80506 5.45231 2.85714 5.61475 2.85714H13.4115C13.5739 2.85714 13.712 2.80506 13.8257 2.70089C13.9394 2.59673 13.9963 2.47024 13.9963 2.32143ZM18.8692 10.4129V17.1429H17.3099V18.5714C17.3099 18.9658 17.1576 19.3025 16.853 19.5815C16.5485 19.8605 16.181 20 15.7505 20C15.3201 20 14.9526 19.8605 14.648 19.5815C14.3435 19.3025 14.1912 18.9658 14.1912 18.5714V17.1429H4.83507V18.5714C4.83507 18.9658 4.68279 19.3025 4.37823 19.5815C4.07367 19.8605 3.70616 20 3.27572 20C2.84527 20 2.47777 19.8605 2.17321 19.5815C1.86865 19.3025 1.71637 18.9658 1.71637 18.5714V17.1429H0.157013V10.4129C0.157013 9.57961 0.258533 8.75 0.461574 7.92411L1.71637 2.85714C1.78946 2.27679 2.18539 1.76711 2.90415 1.32812C3.62292 0.889137 4.5569 0.558036 5.70611 0.334821C6.85532 0.111607 8.12433 0 9.51313 0C10.9019 0 12.1709 0.111607 13.3201 0.334821C14.4693 0.558036 15.4033 0.889137 16.1221 1.32812C16.8409 1.76711 17.2368 2.27679 17.3099 2.85714L18.589 7.92411C18.7758 8.68304 18.8692 9.51265 18.8692 10.4129Z" fill="#1D2E5B"/>
</g>
<defs>
<clipPath id="clip0_1_1476">
<rect width="18.72" height="20" fill="white" transform="translate(0.154053)"/>
</clipPath>
</defs>
</svg>
