<svg width="23" height="24" viewBox="0 0 23 24" fill="none" xmlns="http://www.w3.org/2000/svg">
<path d="M16.1882 6C17.2325 6 18.0791 5.10457 18.0791 4C18.0791 2.89543 17.2325 2 16.1882 2C15.1439 2 14.2973 2.89543 14.2973 4C14.2973 5.10457 15.1439 6 16.1882 6Z" fill="#1D2E5B"/>
<path d="M15.032 10.969C15.249 11.311 15.5603 11.5742 15.9236 11.7227C16.287 11.8712 16.6847 11.8978 17.0628 11.799L20.1979 10.97L19.7413 9.02997L16.6061 9.85897L15.3024 7.79197C15.0238 7.35053 14.5915 7.04354 14.0997 6.93797L10.4635 6.16797C10.0567 6.08162 9.63437 6.13933 9.26168 6.33217C8.88899 6.52502 8.5867 6.84229 8.40148 7.23497L6.83391 10.551L8.52533 11.446L10.0929 8.12897L11.9526 8.52297L7.14402 17H2.95187V19H7.14402C7.80395 19 8.42511 18.628 8.76548 18.029L10.5789 14.833L15.4659 15.867L17.1829 21.316L18.9754 20.683L17.2594 15.235C17.1535 14.9005 16.9662 14.6014 16.7162 14.3679C16.4662 14.1345 16.1625 13.9748 15.8356 13.905L12.9624 13.298L14.6377 10.344L15.032 10.969Z" fill="#1D2E5B"/>
</svg>
