<svg width="26" height="25" viewBox="0 0 26 25" fill="none" xmlns="http://www.w3.org/2000/svg">
<g opacity="0.15">
<path d="M19.7031 21.875C18.7791 21.875 17.8759 21.6115 17.1076 21.1179C16.3393 20.6243 15.7405 19.9227 15.3869 19.1019C15.0333 18.2811 14.9408 17.3778 15.121 16.5064C15.3013 15.635 15.7462 14.8346 16.3996 14.2064C17.053 13.5781 17.8854 13.1503 18.7917 12.9769C19.6979 12.8036 20.6373 12.8926 21.491 13.2326C22.3446 13.5726 23.0743 14.1484 23.5876 14.8871C24.101 15.6258 24.375 16.4943 24.375 17.3828C24.3737 18.5738 23.881 19.7157 23.0052 20.5578C22.1293 21.4 20.9418 21.8737 19.7031 21.875ZM19.7031 14.4531C19.1005 14.4531 18.5114 14.6249 18.0104 14.9469C17.5093 15.2688 17.1188 15.7263 16.8882 16.2617C16.6576 16.797 16.5972 17.3861 16.7148 17.9544C16.8324 18.5227 17.1225 19.0447 17.5487 19.4544C17.9748 19.8641 18.5177 20.1432 19.1087 20.2562C19.6997 20.3692 20.3124 20.3112 20.8691 20.0895C21.4259 19.8678 21.9017 19.4922 22.2365 19.0105C22.5713 18.5287 22.75 17.9623 22.75 17.3828C22.7491 16.6061 22.4277 15.8614 21.8566 15.3122C21.2854 14.763 20.5109 14.454 19.7031 14.4531Z" fill="#1D2E5B"/>
<path d="M6.29688 21.875C5.37287 21.875 4.46961 21.6115 3.70132 21.1179C2.93304 20.6243 2.33423 19.9227 1.98063 19.1019C1.62702 18.2811 1.53451 17.3778 1.71477 16.5064C1.89504 15.635 2.33999 14.8346 2.99336 14.2064C3.64674 13.5781 4.47918 13.1503 5.38544 12.9769C6.29169 12.8036 7.23105 12.8926 8.08473 13.2326C8.9384 13.5726 9.66805 14.1484 10.1814 14.8871C10.6948 15.6258 10.9688 16.4943 10.9688 17.3828C10.9674 18.5738 10.4748 19.7157 9.59891 20.5578C8.72305 21.4 7.53552 21.8737 6.29688 21.875ZM6.29688 14.4531C5.69426 14.4531 5.10518 14.6249 4.60412 14.9469C4.10307 15.2688 3.71254 15.7263 3.48193 16.2617C3.25132 16.797 3.19098 17.3861 3.30855 17.9544C3.42611 18.5227 3.7163 19.0447 4.14241 19.4544C4.56852 19.8641 5.11142 20.1432 5.70246 20.2562C6.2935 20.3692 6.90612 20.3112 7.46286 20.0895C8.01961 19.8678 8.49547 19.4922 8.83026 19.0105C9.16506 18.5287 9.34375 17.9623 9.34375 17.3828C9.34281 16.6061 9.0215 15.8614 8.4503 15.3122C7.87911 14.763 7.10467 14.454 6.29688 14.4531Z" fill="#1D2E5B"/>
<path d="M16.25 6.24999C16.464 6.2507 16.6761 6.21061 16.8739 6.13204C17.0717 6.05346 17.2514 5.93796 17.4025 5.79221C17.5536 5.64645 17.6732 5.47334 17.7543 5.28289C17.8354 5.09243 17.8764 4.8884 17.875 4.68261C17.8774 4.47784 17.8373 4.27467 17.757 4.08498C17.6767 3.89529 17.558 3.72289 17.4076 3.57786C17.2573 3.43283 17.0783 3.31808 16.8813 3.24032C16.6843 3.16256 16.4731 3.12335 16.2602 3.12499C16.0468 3.12435 15.8353 3.16413 15.6379 3.24206C15.4405 3.31999 15.261 3.43454 15.1096 3.57918C14.9582 3.72382 14.838 3.89571 14.7557 4.08503C14.6734 4.27436 14.6307 4.47741 14.6301 4.68261C14.6294 4.8878 14.6708 5.0911 14.7518 5.28092C14.8329 5.47074 14.952 5.64334 15.1024 5.78889C15.2529 5.93443 15.4316 6.05007 15.6285 6.12918C15.8254 6.2083 16.0366 6.24935 16.25 6.24999Z" fill="#1D2E5B"/>
<path d="M18.6646 9.37511H16.4425C16.406 9.37511 16.3702 9.36569 16.3389 9.34782C16.3075 9.32995 16.2817 9.30429 16.2642 9.27354L14.6524 6.43321C14.5389 6.22213 14.3752 6.03973 14.1747 5.90077C13.9742 5.76181 13.7425 5.6702 13.4983 5.63336C13.2541 5.59651 13.0044 5.61546 12.7692 5.68868C12.5341 5.76189 12.3202 5.88732 12.1448 6.05479L8.59727 9.49229C8.29923 9.78479 8.13006 10.1766 8.125 10.586C8.125 11.4357 8.76484 11.7384 9.06445 11.9093C10.5117 12.711 11.5309 13.2975 12.09 13.6232C12.1197 13.6406 12.1443 13.665 12.1614 13.6942C12.1784 13.7233 12.1874 13.7562 12.1875 13.7897V17.1647C12.1875 17.5851 12.5237 17.9459 12.9609 17.9669C13.0707 17.972 13.1804 17.9556 13.2834 17.9188C13.3864 17.8819 13.4805 17.8253 13.5601 17.7525C13.6397 17.6796 13.7032 17.592 13.7465 17.4949C13.7899 17.3978 13.8124 17.2933 13.8125 17.1876V12.9884C13.8126 12.8644 13.7819 12.7421 13.7231 12.6317C13.6643 12.5213 13.579 12.426 13.4743 12.3536L11.5954 11.0543C11.5718 11.0381 11.5521 11.0172 11.5376 10.993C11.5231 10.9689 11.5142 10.942 11.5114 10.9143C11.5086 10.8865 11.512 10.8585 11.5214 10.8321C11.5309 10.8057 11.546 10.7816 11.5659 10.7613L13.6988 8.57432C13.7206 8.55182 13.7477 8.53461 13.7778 8.5241C13.8079 8.51359 13.8402 8.51007 13.872 8.51383C13.9038 8.51759 13.9342 8.52852 13.9607 8.54574C13.9873 8.56296 14.0092 8.58597 14.0248 8.6129L15.1328 10.5358C15.2032 10.6576 15.3063 10.7592 15.4313 10.8299C15.5563 10.9005 15.6987 10.9377 15.8438 10.9376H18.6875C18.7976 10.9377 18.9065 10.9163 19.0077 10.8748C19.109 10.8332 19.2003 10.7722 19.2763 10.6957C19.3523 10.6191 19.4113 10.5285 19.4497 10.4293C19.4882 10.3301 19.5053 10.2245 19.5 10.1188C19.4787 9.69835 19.1019 9.37511 18.6646 9.37511Z" fill="#1D2E5B"/>
</g>
</svg>
