<svg width="50" height="50" viewBox="0 0 50 50" fill="none" xmlns="http://www.w3.org/2000/svg">
<ellipse cx="25" cy="25" rx="25" ry="25" fill="#E2E5F2"/>
<g clip-path="url(#clip0_1_570)">
<g opacity="1">
<path fill-rule="evenodd" clip-rule="evenodd" d="M25.6101 23.1244L26.7268 20.7756C27.004 20.194 27.4849 19.3576 28.1657 18.6815C28.8352 18.0159 29.6371 17.5629 30.6063 17.5629C32.6997 17.5629 34.3535 19.3038 34.3535 21.3966C34.3535 22.9865 33.6615 24.109 32.0202 25.8211C31.5993 26.2596 31.1197 26.7335 30.5888 27.2561C29.2049 28.6215 27.4837 30.3204 25.6101 32.5917C23.7365 30.3204 22.0153 28.6215 20.6314 27.2561C20.1005 26.7335 19.6196 26.2583 19.2 25.8211C17.5587 24.109 16.8667 22.9865 16.8667 21.3966C16.8667 19.3038 18.5205 17.5629 20.6139 17.5629C21.5832 17.5629 22.385 18.0159 23.0545 18.6815C23.7353 19.3576 24.2162 20.194 24.4935 20.7756L25.6101 23.1244ZM26.0997 34.0109C26.0396 34.0858 25.9646 34.146 25.88 34.1873C25.7955 34.2286 25.7034 34.25 25.6101 34.25C25.5169 34.25 25.4247 34.2286 25.3402 34.1873C25.2556 34.146 25.1806 34.0858 25.1205 34.0109C23.1207 31.5138 21.3109 29.7283 19.8207 28.2591C17.2414 25.7134 15.6177 24.113 15.6177 21.3966C15.6177 18.5541 17.8535 16.25 20.6139 16.25C22.6124 16.25 24.0101 17.6285 24.8657 18.8863C25.1904 19.3655 25.4377 19.8263 25.6101 20.1887C25.8262 19.7352 26.0751 19.2998 26.3545 18.8863C27.2101 17.6272 28.6078 16.25 30.6063 16.25C33.3667 16.25 35.6025 18.5541 35.6025 21.3966C35.6025 24.113 33.9788 25.7134 31.3995 28.2591C29.9093 29.7296 28.0995 31.5151 26.0997 34.0096V34.0109Z" fill="#192144"/>
</g>
</g>
<defs>
<clipPath id="clip0_1_570">
<rect width="19.9849" height="20" fill="white" transform="translate(15.6177 15)"/>
</clipPath>
</defs>
</svg>
