<svg width="50" height="50" viewBox="0 0 50 50" fill="none" xmlns="http://www.w3.org/2000/svg">
<ellipse cx="25" cy="25" rx="25" ry="25" fill="#F9EAEA"/>
<g clip-path="url(#clip0_1_482)">
<path d="M20.6139 16.25C23.3743 16.25 25.6101 18.4438 25.6101 21.15C25.6101 18.4438 27.8459 16.25 30.6063 16.25C33.3667 16.25 35.6025 18.4438 35.6025 21.15C35.6025 25.2288 31.5631 26.6675 26.0997 33.16C26.0396 33.2313 25.9646 33.2886 25.88 33.3279C25.7955 33.3672 25.7034 33.3876 25.6101 33.3876C25.5169 33.3876 25.4247 33.3672 25.3402 33.3279C25.2556 33.2886 25.1806 33.2313 25.1205 33.16C19.6571 26.6675 15.6177 25.2288 15.6177 21.15C15.6177 18.4438 17.8535 16.25 20.6139 16.25Z" fill="#F02323"/>
</g>
<defs>
<clipPath id="clip0_1_482">
<rect width="19.9849" height="20" fill="white" transform="translate(15.6177 15)"/>
</clipPath>
</defs>
</svg>
